<?xml version="1.0" standalone="no"?>
<!DOCTYPE svg PUBLIC "-//W3C//DTD SVG 20010904//EN"
 "http://www.w3.org/TR/2001/REC-SVG-20010904/DTD/svg10.dtd">
<svg version="1.0" xmlns="http://www.w3.org/2000/svg"
 width="200.000000pt" height="200.000000pt" viewBox="0 0 200.000000 200.000000"
 preserveAspectRatio="xMidYMid meet">
<metadata>
Created by potrace 1.14, written by Peter Selinger 2001-2017
</metadata>
<g transform="translate(0.000000,200.000000) scale(0.100000,-0.100000)"
fill="#000000" stroke="none">
<path d="M482 1713 c-49 -49 -108 -116 -131 -151 -42 -62 -111 -197 -111 -217
0 -5 -25 -23 -55 -39 -66 -34 -136 -94 -164 -140 -31 -49 -26 -55 7 -10 38 52
102 108 152 134 40 20 40 20 40 1 0 -12 -17 -32 -44 -50 -125 -87 -172 -265
-102 -386 27 -45 93 -109 130 -126 14 -7 29 -29 41 -62 10 -29 29 -73 42 -99
13 -27 21 -48 17 -48 -3 0 -33 14 -66 32 -69 37 -144 101 -200 171 -21 27 -38
44 -38 37 0 -52 135 -180 256 -241 53 -27 94 -55 107 -74 34 -48 179 -195 194
-195 23 0 14 18 -28 51 -41 32 -143 148 -137 155 2 2 31 -4 63 -12 42 -11 124
-17 269 -20 116 -3 212 -7 214 -9 3 -2 -9 -21 -26 -42 -36 -47 -72 -113 -72
-133 1 -29 80 72 92 117 11 44 11 44 51 41 25 -2 42 2 44 9 5 13 -51 46 -61
36 -13 -13 -5 11 13 41 22 36 39 136 22 136 -10 0 -21 -34 -41 -127 l-11 -52
-202 3 c-195 3 -237 8 -349 43 -45 14 -48 17 -94 109 -26 52 -45 97 -42 99 2
2 26 -3 53 -12 104 -34 392 -17 655 39 87 18 102 19 190 7 126 -18 260 -16
340 5 88 23 160 65 250 145 121 108 136 118 182 126 l43 8 -43 13 c-24 7 -62
27 -84 44 -29 21 -53 30 -79 30 l-37 0 14 46 c24 80 26 164 10 344 -20 210
-24 236 -42 251 -19 15 -28 5 -44 -46 l-13 -40 -11 32 c-6 18 -17 38 -24 45
-17 17 -29 -2 -38 -56 l-7 -39 -18 24 c-26 34 -42 14 -47 -61 l-4 -60 -21 27
-21 26 -18 -23 c-10 -12 -18 -38 -18 -56 0 -32 -1 -33 -20 -22 -26 16 -40 -1
-40 -48 0 -42 -28 -54 -53 -22 -42 51 -68 121 -79 209 -6 49 -15 89 -19 89 -4
0 -13 -16 -20 -35 -15 -40 -23 -32 -34 32 -4 24 -11 45 -15 48 -19 12 -43 -46
-44 -105 l-1 -60 -31 37 -31 37 -7 -36 c-4 -20 -4 -56 0 -80 6 -42 6 -42 -10
-20 -36 47 -54 10 -31 -64 8 -27 15 -50 15 -51 0 -1 -12 9 -26 22 -15 14 -31
25 -35 25 -12 0 -11 -33 1 -65 7 -18 6 -31 -2 -45 -9 -14 -9 -25 1 -46 9 -20
9 -30 2 -32 -16 -5 -13 -34 4 -60 12 -17 13 -26 5 -42 -12 -22 -6 -38 22 -58
15 -11 16 -16 6 -32 -10 -15 -10 -22 0 -32 6 -6 12 -22 12 -35 0 -12 6 -26 13
-30 8 -4 17 -15 21 -23 14 -31 32 -57 49 -74 30 -31 20 -46 -55 -81 -207 -95
-547 -141 -717 -97 l-65 17 -13 50 c-7 28 -16 78 -19 113 -4 35 -12 62 -18 62
-8 0 -8 2 0 8 7 4 14 52 17 112 5 111 21 181 64 289 48 121 103 201 216 314
59 59 107 110 107 112 0 21 -42 -9 -118 -82z m-282 -502 c-5 -17 -12 -74 -16
-126 -5 -65 -10 -92 -18 -88 -7 5 -7 2 1 -8 6 -8 16 -48 22 -89 6 -41 13 -90
17 -107 9 -44 -6 -42 -60 7 -125 115 -121 289 9 409 26 23 48 41 51 39 2 -2
-1 -19 -6 -37z"/>
<path d="M382 1404 c3 -17 21 -21 26 -6 1 5 -4 12 -13 16 -11 4 -15 1 -13 -10z"/>
<path d="M640 1381 c0 -15 4 -20 13 -15 6 4 9 3 4 -1 -4 -5 0 -19 8 -32 9 -13
11 -23 6 -23 -5 0 -13 9 -16 20 -3 11 -11 20 -16 20 -17 0 -23 -32 -9 -53 12
-20 11 -20 -24 1 -21 12 -34 16 -31 10 4 -7 -3 -2 -14 12 -15 19 -21 21 -21 9
0 -10 -8 -16 -22 -15 -11 0 -23 -5 -25 -11 -3 -9 10 -12 49 -11 29 1 63 -4 75
-10 14 -8 24 -9 28 -2 10 17 25 11 25 -10 0 -25 20 -27 21 -2 0 9 2 27 5 38 2
14 -8 36 -26 59 -26 33 -30 35 -30 16z"/>
<path d="M440 1374 c0 -9 5 -12 13 -8 10 6 10 4 0 -7 -10 -10 -16 -10 -25 -1
-24 24 -35 12 -41 -44 -5 -48 -3 -59 15 -78 12 -11 18 -16 14 -9 -3 6 -2 14 3
18 6 3 8 -5 5 -20 -2 -14 0 -25 5 -25 5 0 9 -31 8 -70 -2 -62 0 -71 18 -77 11
-4 24 -6 28 -5 5 1 6 -2 3 -6 -5 -9 32 -50 40 -44 2 1 7 2 12 2 4 0 0 -4 -8
-10 -12 -8 -12 -10 2 -15 22 -9 12 -35 -13 -35 -10 0 -19 -4 -19 -10 0 -5 -6
-7 -14 -4 -8 3 -23 1 -33 -5 -15 -9 -13 -10 12 -7 17 1 39 6 49 11 21 9 50
-20 39 -38 -3 -6 -10 -1 -14 11 -12 31 -16 27 -11 -8 4 -31 27 -39 66 -24 24
9 20 37 -4 31 -27 -7 -33 6 -31 64 0 37 -3 49 -14 49 -8 0 -15 7 -15 16 0 10
-6 14 -14 11 -8 -3 -13 1 -12 10 0 9 -9 17 -23 20 -14 2 -26 5 -27 6 -2 1 -4
40 -5 86 -2 66 -6 88 -21 103 -20 20 -33 24 -22 6 4 -7 3 -8 -4 -4 -16 9 -3
36 14 29 8 -3 14 -10 14 -16 0 -7 4 -7 12 1 10 10 10 15 -1 21 -10 7 -11 13
-2 30 7 11 16 21 21 21 16 0 11 27 -5 34 -9 3 -15 0 -15 -10z"/>
<path d="M494 1349 c-9 -16 2 -22 21 -11 15 8 16 10 1 15 -8 3 -18 2 -22 -4z"/>
<path d="M703 1296 c0 -7 9 -19 19 -25 18 -11 18 -11 2 14 -19 29 -21 30 -21
11z"/>
<path d="M695 1252 c-11 -11 -4 -22 14 -22 16 0 19 -7 18 -45 -1 -25 1 -45 6
-45 4 0 7 -8 7 -17 0 -15 -2 -16 -10 -3 -7 12 -12 12 -21 3 -9 -9 -16 -10 -26
-2 -10 9 -13 7 -13 -10 0 -12 5 -19 10 -16 11 7 14 -8 3 -19 -12 -12 -12 -39
0 -55 15 -20 77 -28 77 -10 0 7 6 5 14 -6 23 -31 13 -50 -30 -55 -36 -5 -37
-6 -19 -17 l20 -12 -20 -1 c-22 0 -91 -23 -101 -33 -11 -11 50 1 89 17 20 9
37 21 37 27 0 5 4 8 9 5 5 -3 20 5 34 18 14 13 28 21 31 19 12 -12 17 27 6 44
-11 17 -11 17 -6 0 4 -12 2 -17 -6 -15 -7 3 -15 15 -16 27 -3 16 0 21 8 16 13
-8 30 11 30 34 0 11 -3 11 -15 1 -13 -11 -18 -10 -29 5 -16 23 -36 12 -36 -21
0 -19 -5 -24 -25 -24 -19 0 -23 4 -18 17 4 11 3 14 -5 9 -7 -4 -12 -1 -12 9 0
11 5 15 16 11 8 -3 12 -2 9 4 -3 6 -2 10 4 10 15 0 41 54 41 85 0 14 -4 25
-10 25 -5 0 -9 3 -9 8 4 21 -3 30 -26 34 -13 3 -27 3 -30 0z m63 -79 c1 -22 0
-24 -8 -13 -12 18 -13 40 -2 40 4 0 9 -12 10 -27z m32 -93 c0 -5 -2 -10 -4
-10 -3 0 -8 5 -11 10 -3 6 -1 10 4 10 6 0 11 -4 11 -10z"/>
<path d="M670 934 c0 -9 5 -14 12 -12 18 6 21 28 4 28 -9 0 -16 -7 -16 -16z"/>
<path d="M250 930 c8 -5 20 -10 25 -10 6 0 3 5 -5 10 -8 5 -19 10 -25 10 -5 0
-3 -5 5 -10z"/>
<path d="M315 910 c45 -11 115 -11 115 0 0 6 -30 10 -72 9 -55 -1 -66 -3 -43
-9z"/>
<path d="M1062 524 l-57 -55 40 16 c36 14 95 68 95 87 0 20 -26 4 -78 -48z"/>
<path d="M728 453 c6 -2 18 -2 25 0 6 3 1 5 -13 5 -14 0 -19 -2 -12 -5z"/>
<path d="M970 338 c0 -25 29 -121 39 -131 20 -20 12 76 -9 111 -21 34 -30 40
-30 20z"/>
</g>
</svg>
